<?xml version="1.0" encoding="UTF-8"?><svg id="uuid-a82fbc54-4158-4347-a29b-d410f3257001" xmlns="http://www.w3.org/2000/svg" viewBox="0 0 19.9805 20"><defs><style>.uuid-ea0ac05f-576a-4b6e-a52c-383fb20f2de6{fill:#fff;}</style></defs><path class="uuid-ea0ac05f-576a-4b6e-a52c-383fb20f2de6" d="m1.875,8.125c0-3.4375,2.7734-6.25,6.25-6.25,3.4375,0,6.25,2.8125,6.25,6.25,0,3.4766-2.8125,6.25-6.25,6.25-3.4766,0-6.25-2.7734-6.25-6.25Zm17.8125,10.2734l-5.2344-5.2344c1.1328-1.3672,1.7578-3.125,1.7578-5.0391C16.2109,3.6719,12.5391,0,8.0859,0,3.5938,0,0,3.6719,0,8.125c0,4.4922,3.6328,8.125,8.0859,8.125,1.875,0,3.6328-.625,5.0391-1.7578l5.2344,5.2344c.1953.1953.4297.2734.7031.2734.2344,0,.4688-.0781.625-.2734.3906-.3516.3906-.9375,0-1.3281Z"/></svg>