<?xml version="1.0" encoding="UTF-8"?><svg id="uuid-9da2fd25-2c1c-4d2d-8d18-20c21ccd4b13" xmlns="http://www.w3.org/2000/svg" viewBox="0 0 31.9688 32"><path d="M31.5,29.4375l-8.375-8.375c1.8125-2.1875,2.8125-5,2.8125-8.0625C25.9375,5.875,20.0625,0,12.9375,0,5.75,0,0,5.875,0,13c0,7.1875,5.8125,13,12.9375,13,3,0,5.8125-1,8.0625-2.8125l8.375,8.375c.3125,.3125,.6875,.4375,1.125,.4375,.375,0,.75-.125,1-.4375,.625-.5625,.625-1.5,0-2.125ZM3,13C3,7.5,7.4375,3,13,3c5.5,0,10,4.5,10,10,0,5.5625-4.5,10-10,10-5.5625,0-10-4.4375-10-10Z"/></svg>